<?xml version="1.0" encoding="utf-8"?>
<svg version="1.1" id="Layer_3" xmlns="http://www.w3.org/2000/svg" xmlns:xlink="http://www.w3.org/1999/xlink" x="0px" y="0px"
	 viewBox="0 0 30 30" style="enable-background:new 0 0 30 30;" xml:space="preserve">
<style type="text/css">
	.st0{fill:none;}
</style>
<g>
	<path class="st0" d="M20,19.8c2.2-0.5,3.7-2.5,3.7-4.8C23.7,17.3,22.2,19.2,20,19.8z"/>
	<path class="st0" d="M2.5,26.2h15V3.8h-15V26.2z M5,6.3h5v2.5H5V6.3z M5,11.3h10v2.5H5V11.3z M5,16.3h7.5v2.5H5V16.3z M5,21.3h10
		v2.5H5V21.3z"/>
	<path class="st0" d="M20,10.2v9.6c2.2-0.6,3.7-2.5,3.7-4.8S22.2,10.8,20,10.2z"/>
	<path d="M30,16.9v-3.7l-2.9-0.7c-0.2-0.8-0.6-1.5-1-2.1l1.3-2.7l-2.9-2.4L22.1,7c-0.7-0.3-1.4-0.5-2.1-0.6V3.8
		c0-1.4-1.1-2.5-2.5-2.5h-15C1.1,1.3,0,2.4,0,3.8v22.5c0,1.4,1.1,2.5,2.5,2.5h15c1.4,0,2.5-1.1,2.5-2.5v-2.6
		c0.7-0.1,1.5-0.3,2.1-0.6l2.4,1.8l2.9-2.4l-1.3-2.7c0.4-0.7,0.8-1.4,1-2.1L30,16.9z M17.5,26.2h-15V3.8h15V26.2z M20,19.8v-9.6
		c2.2,0.5,3.7,2.5,3.7,4.8S22.2,19.3,20,19.8z"/>
	<rect x="5" y="6.3" width="5" height="2.5"/>
	<rect x="5" y="11.3" width="10" height="2.5"/>
	<rect x="5" y="16.3" width="7.5" height="2.5"/>
	<rect x="5" y="21.3" width="10" height="2.5"/>
</g>
</svg>
