<?xml version="1.0" encoding="utf-8"?>
<svg version="1.1" id="Layer_3" xmlns="http://www.w3.org/2000/svg" xmlns:xlink="http://www.w3.org/1999/xlink" x="0px" y="0px"
	 viewBox="0 0 30 30" style="enable-background:new 0 0 30 30;" xml:space="preserve">
<path d="M25.4,23.5h-0.7c-0.3-1.5-1.7-2.9-3.1-4.4c-1.4-1.5-2.9-3-3.3-4.5c1.2,0.2,3.4,0.6,4.4,0.7c1.4,0.2,3.5-2,3.9-3.5
	c0.2-0.9-0.2-1.6-1-1.9c-0.5-0.2-1.4-1-2.2-1.8c-1.8-1.7-3.9-3.7-6.4-4V0.7c0-0.2-0.1-0.4-0.2-0.5C16.6,0.1,16.5,0,16.3,0
	c-4.4,0.2-6.6,4.4-7,5.4C6.6,7.2,3.9,9.6,3.9,15c0,3,1.5,6.7,2.2,8.5H4.6c-1.1,0-2,0.9-2,2v3.9c0,0.4,0.3,0.7,0.7,0.7h23.5
	c0.4,0,0.7-0.3,0.7-0.7v-3.9C27.4,24.4,26.5,23.5,25.4,23.5z M5.2,15c0-4.9,2.4-6.9,4.9-8.6c0.1-0.1,0.2-0.2,0.2-0.3
	c0,0,1.7-4.1,5.2-4.7v3.2c0,0.4,0.3,0.7,0.7,0.7c2.3,0,4.4,2.1,6.2,3.7c1.1,1,1.9,1.8,2.7,2.1c0.1,0,0.2,0.1,0.1,0.3
	c-0.2,1.1-2,2.6-2.4,2.5c-1.3-0.2-5.1-0.9-5.2-0.9c-0.2,0-0.4,0-0.5,0.1c-0.2,0.1-0.2,0.3-0.2,0.5c0,2.3,1.9,4.3,3.7,6.3
	c1.1,1.2,2.3,2.4,2.7,3.5H7.6C7,22.2,5.2,18.1,5.2,15z M26.1,28.7H3.9v-3.2c0-0.4,0.3-0.7,0.7-0.7h2.6c0,0,0,0,0,0c0,0,0,0,0,0h18.2
	c0.4,0,0.7,0.3,0.7,0.7V28.7z"/>
</svg>
