<?xml version="1.0" encoding="utf-8"?>
<svg version="1.1" id="Layer_3" xmlns="http://www.w3.org/2000/svg" xmlns:xlink="http://www.w3.org/1999/xlink" x="0px" y="0px"
	 viewBox="0 0 30 30" style="enable-background:new 0 0 30 30;" xml:space="preserve">
<g>
	<path d="M5.4,30c-0.3-0.1-0.6-0.2-0.9-0.3c-0.9-0.5-1.4-1.3-1.4-2.3c0-2.3,0-4.6,0-6.9c0-5.3,0-10.7,0-16C3.1,3,4,1.9,5.4,1.7
		c0.4-0.1,0.8,0,1.3,0c0.7,0,1.4,0,2.1,0c0.1,0,0.3-0.1,0.4-0.2c1-1,2.1-1.5,3.5-1.5c1.6,0,3.1,0,4.7,0c1.4,0,2.5,0.5,3.5,1.5
		c0.1,0.1,0.2,0.2,0.4,0.2c1,0,2,0,2.9,0c1.7,0,2.8,1.1,2.8,2.8c0,7.6,0,15.2,0,22.8c0,1.5-0.8,2.4-2.2,2.8c0,0-0.1,0-0.1,0
		C18.2,30,11.8,30,5.4,30z M8,3.4c-0.7,0-1.4,0-2.1,0c-0.7,0-1.1,0.3-1.1,1.1c0,7.6,0,15.1,0,22.7c0,0.8,0.3,1.1,1.1,1.1
		c6,0,12.1,0,18.1,0c0.8,0,1.1-0.3,1.1-1.1c0-3.1,0-6.2,0-9.3c0-4.4,0-8.9,0-13.3c0-0.8-0.3-1.1-1.1-1.1c-0.6,0-1.2,0-1.8,0
		c-0.1,0-0.2,0-0.3,0C22,3.6,22,3.8,22.1,4c0,0.2,0,0.4,0.1,0.6c0,0.6-0.3,1-1,1c-4.1,0-8.2,0-12.4,0c-0.6,0-1-0.4-0.9-1
		C7.9,4.2,8,3.8,8,3.4z M20.2,3.9c0-0.1-0.1-0.2-0.1-0.3c-0.5-1.1-1.4-1.8-2.7-1.8c-1.6,0-3.2,0-4.8,0c-0.3,0-0.6,0-0.8,0.1
		c-1,0.3-1.6,1-2,2C13.3,3.9,16.7,3.9,20.2,3.9z"/>
	<path d="M16,12.2c0.7-0.7,1.4-1.4,2.1-2.1c-0.1,0-0.2,0-0.3,0c-0.4-0.1-0.7-0.5-0.6-0.9c0-0.4,0.4-0.8,0.8-0.8c0.8,0,1.6,0,2.4,0
		c0.5,0,0.8,0.4,0.8,0.9c0,0.7,0,1.4,0,2.1c0,0.5-0.3,0.9-0.8,0.9c-0.5,0-0.9-0.3-1-0.8c0,0,0-0.1,0-0.1c0,0-0.1-0.1-0.1-0.1
		c0,0.1-0.1,0.2-0.1,0.3c-0.8,0.8-1.6,1.6-2.4,2.4c-0.5,0.5-1,0.5-1.5,0c-0.8-0.8-1.6-1.6-2.3-2.3c-0.1-0.1-0.1-0.1-0.2-0.2
		c-0.2,0.2-0.4,0.4-0.5,0.5c-0.6,0.6-1.3,1.3-1.9,1.9c-0.4,0.4-0.9,0.4-1.3,0c-0.4-0.4-0.4-0.9,0-1.3c1-1,2.1-2.1,3.1-3.1
		c0.4-0.4,0.9-0.4,1.3,0c0.8,0.8,1.5,1.5,2.3,2.3C15.8,12,15.9,12.2,16,12.2z"/>
	<path d="M18,18.2c1.2,0,2.3,0,3.5,0c0.7,0,1.1,0.6,0.9,1.2c-0.2,0.4-0.5,0.5-0.8,0.5c-2.3,0-4.7,0-7,0c-0.5,0-0.9-0.4-0.9-0.9
		c0-0.5,0.4-0.9,0.9-0.9C15.6,18.2,16.8,18.2,18,18.2z"/>
	<path d="M18,23.3c1.2,0,2.3,0,3.5,0c0.6,0,1,0.4,1,0.9c0,0.5-0.4,0.9-1,0.9c-2.3,0-4.6,0-6.9,0c-0.5,0-0.9-0.3-1-0.8
		c-0.1-0.4,0.2-0.8,0.6-0.9c0.1,0,0.3,0,0.4,0C15.7,23.3,16.8,23.3,18,23.3z"/>
	<path d="M9.3,18.8c0.5-0.5,0.8-0.9,1.2-1.2c0.4-0.4,0.9-0.5,1.3-0.1c0.4,0.4,0.4,0.9-0.1,1.3c-0.6,0.6-1.1,1.1-1.7,1.7
		c-0.5,0.5-1,0.5-1.5,0c-0.3-0.3-0.5-0.5-0.8-0.8c-0.4-0.4-0.4-0.9,0-1.3c0.4-0.4,0.9-0.3,1.3,0C9.2,18.6,9.2,18.7,9.3,18.8z"/>
	<path d="M9.3,23.9c0.5-0.5,0.9-0.9,1.3-1.3c0.4-0.4,1-0.5,1.3-0.1c0.4,0.4,0.3,0.9-0.1,1.3c-0.6,0.6-1.2,1.2-1.8,1.8
		c-0.4,0.4-0.9,0.4-1.4,0c-0.3-0.3-0.6-0.6-0.8-0.8c-0.4-0.4-0.4-0.9,0-1.3c0.4-0.3,0.9-0.3,1.3,0C9.2,23.6,9.2,23.8,9.3,23.9z"/>
</g>
</svg>
