<?xml version="1.0" encoding="utf-8"?>
<svg version="1.1" id="Layer_3" xmlns="http://www.w3.org/2000/svg" xmlns:xlink="http://www.w3.org/1999/xlink" x="0px" y="0px"
	 viewBox="0 0 30 30" style="enable-background:new 0 0 30 30;" xml:space="preserve">
<g>
	<path d="M5.5,3.3c0.3,0,0.6,0,0.9,0h0.1v9.5c0,0.7,0.2,1,0.9,1h6.9c0,0.1,0,0.1,0,0.2c0,0.1,0,0.1-0.1,0.2
		c-0.5,0.3-0.8,0.7-0.8,1.3c0,0.8,0.5,1.4,1.3,1.6c0.1,0,0.2,0,0.3,0c0.6,0,1.2-0.4,1.5-1c0.3-0.7,0-1.5-0.7-1.9c0,0-0.1,0-0.1-0.1
		c0-0.1,0-0.2,0-0.3h6.9c0.7,0,0.9-0.2,0.9-0.9V3.3c0.3,0,0.6,0,0.8,0c0.7,0,1-0.2,1-1l0-1.4c0-0.6-0.3-0.9-0.9-0.9L5.5,0
		C4.9,0,4.6,0.3,4.6,0.9c0,0.6,0,1.1,0,1.7C4.7,3,4.9,3.3,5.5,3.3z M15.5,15.5c0,0.1-0.1,0.3-0.2,0.4C15.3,15.9,15.1,16,15,16h0
		c-0.1,0-0.3-0.1-0.4-0.2c-0.1-0.1-0.2-0.2-0.2-0.4c0-0.3,0.2-0.5,0.5-0.5c0,0,0,0,0,0c0.2,0,0.3,0.1,0.4,0.1
		C15.4,15.2,15.5,15.3,15.5,15.5z M22.1,3.3v9H7.9v-9H22.1z"/>
	<polygon points="15.8,20.7 25.1,20.7 25.1,18.4 4.9,18.4 4.9,20.7 14.2,20.7 14.2,28.5 12.8,28.5 12.8,30 17.2,30 17.2,28.5 
		15.8,28.5 	"/>
	<path d="M29.6,21.9c0-0.6,0-1.2,0-1.9l0-0.6h0l0-3.2c0-0.2,0-0.5-0.2-0.7c-0.2-0.2-0.6-0.2-0.9-0.3c-0.7,0-1,0.3-1,1l0,1.4l0,0.6
		c0,0.5,0,0.9,0,1.3c0,1.8,0,2.7-0.4,3.1c-0.4,0.4-1.4,0.4-3.3,0.4c-0.4,0-0.8,0-1.2,0h-2c-0.3,0-0.6,0.1-0.7,0.2
		c-0.2,0.2-0.3,0.4-0.3,0.7c0,0.6,0.1,1.2,1,1.2l1.1,0l0,0.9l0,3c0,0.5,0.3,0.8,0.8,0.9c0.2,0,0.5-0.1,0.6-0.2
		c0.2-0.1,0.2-0.3,0.2-0.5c0-0.9,0-2.2,0-3.3l0-0.7c0.9,0,1.7,0,2.6,0l1.3,3.5c0.1,0.2,0.2,0.5,0.3,0.7c0.1,0.3,0.4,0.6,0.8,0.6
		c0.1,0,0.2,0,0.3,0c0.2-0.1,0.4-0.2,0.5-0.4c0.1-0.2,0.1-0.4,0-0.6l-0.2-0.5c-0.4-1-0.9-2.4-1.3-3.4C28.8,24.4,29.6,23.2,29.6,21.9
		z"/>
	<path d="M9.3,23.1h-2c-0.5,0-0.9,0-1.2,0c-1.8,0-2.9,0-3.3-0.4c-0.4-0.4-0.4-1.4-0.4-3.1c0-0.4,0-0.8,0-1.3l0-2c0-0.7-0.3-1-1-1
		c-0.4,0-0.7,0.1-0.8,0.2c-0.3,0.2-0.3,0.5-0.3,0.8c0,0.8,0,1.6,0,2.3l0,0.5l0,0.8c0,0.6,0,1.3,0,1.9c0,1.4,0.8,2.5,2,3.1
		c-0.4,0.9-0.8,2.2-1.2,3.3l-0.2,0.7c-0.1,0.2-0.1,0.4,0,0.6C1,29.7,1.2,29.9,1.4,30c0.1,0,0.2,0,0.3,0c0.3,0,0.6-0.2,0.8-0.6
		c0.1-0.2,0.2-0.5,0.3-0.7L4,25.3c0.9,0,1.7,0,2.6,0l0,0.7c0,1.1,0,2.4,0,3.3c0,0.2,0.1,0.4,0.2,0.5C7,29.9,7.3,30,7.5,30
		c0.4,0,0.8-0.4,0.8-0.9l0-3l0-0.9l1.1,0c0.9,0,1-0.6,1-1.2c0-0.3-0.1-0.5-0.2-0.7C9.9,23.2,9.7,23.1,9.3,23.1z"/>
</g>
</svg>
