<?xml version="1.0" encoding="utf-8"?>
<svg version="1.1" id="Layer_3" xmlns="http://www.w3.org/2000/svg" xmlns:xlink="http://www.w3.org/1999/xlink" x="0px" y="0px"
	 viewBox="0 0 30 30" style="enable-background:new 0 0 30 30;" xml:space="preserve">
<g>
	<polygon points="15.8,20.7 25.1,20.7 25.1,18.4 4.9,18.4 4.9,20.7 14.2,20.7 14.2,28.5 12.8,28.5 12.8,30 17.2,30 17.2,28.5 
		15.8,28.5 	"/>
	<path d="M29.6,21.9c0-0.6,0-1.2,0-1.9l0-0.6h0l0-3.2c0-0.2,0-0.5-0.2-0.7c-0.2-0.2-0.6-0.2-0.9-0.3c-0.7,0-1,0.3-1,1l0,1.4l0,0.6
		c0,0.5,0,0.9,0,1.3c0,1.8,0,2.7-0.4,3.1c-0.4,0.4-1.4,0.4-3.3,0.4c-0.4,0-0.8,0-1.2,0h-2c-0.3,0-0.6,0.1-0.7,0.2
		c-0.2,0.2-0.3,0.4-0.3,0.7c0,0.6,0.1,1.2,1,1.2l1.1,0l0,0.9l0,3c0,0.5,0.3,0.8,0.8,0.9c0.2,0,0.5-0.1,0.6-0.2
		c0.2-0.1,0.2-0.3,0.2-0.5c0-0.9,0-2.2,0-3.3l0-0.7c0.9,0,1.7,0,2.6,0l1.3,3.5c0.1,0.2,0.2,0.5,0.3,0.7c0.1,0.3,0.4,0.6,0.8,0.6
		c0.1,0,0.2,0,0.3,0c0.2-0.1,0.4-0.2,0.5-0.4c0.1-0.2,0.1-0.4,0-0.6l-0.2-0.5c-0.4-1-0.9-2.4-1.3-3.4C28.8,24.4,29.6,23.2,29.6,21.9
		z"/>
	<path d="M9.3,23.1h-2c-0.5,0-0.9,0-1.2,0c-1.8,0-2.9,0-3.3-0.4c-0.4-0.4-0.4-1.4-0.4-3.1c0-0.4,0-0.8,0-1.3l0-2c0-0.7-0.3-1-1-1
		c-0.4,0-0.7,0.1-0.8,0.2c-0.3,0.2-0.3,0.5-0.3,0.8c0,0.8,0,1.6,0,2.3l0,0.5l0,0.8c0,0.6,0,1.3,0,1.9c0,1.4,0.8,2.5,2,3.1
		c-0.4,0.9-0.8,2.2-1.2,3.3l-0.2,0.7c-0.1,0.2-0.1,0.4,0,0.6C1,29.7,1.2,29.9,1.4,30c0.1,0,0.2,0,0.3,0c0.3,0,0.6-0.2,0.8-0.6
		c0.1-0.2,0.2-0.5,0.3-0.7L4,25.3c0.9,0,1.7,0,2.6,0l0,0.7c0,1.1,0,2.4,0,3.3c0,0.2,0.1,0.4,0.2,0.5C7,29.9,7.3,30,7.5,30
		c0.4,0,0.8-0.4,0.8-0.9l0-3l0-0.9l1.1,0c0.9,0,1-0.6,1-1.2c0-0.3-0.1-0.5-0.2-0.7C9.9,23.2,9.7,23.1,9.3,23.1z"/>
	<path d="M13.4,0C13.2,0,13,0.2,13,0.4l-0.2,1.7c-0.8,0.3-1.6,0.7-2.2,1.3L8.9,2.7c-0.2-0.1-0.4,0-0.5,0.2L6.8,5.7
		C6.7,5.8,6.7,6.1,6.9,6.2l1.4,1C8.2,7.7,8.2,8.1,8.2,8.5s0,0.9,0.1,1.3l-1.4,1c-0.2,0.1-0.2,0.4-0.1,0.6l1.6,2.8
		c0.1,0.2,0.3,0.3,0.5,0.2l1.6-0.7c0.6,0.6,1.4,1,2.2,1.3l0.2,1.7c0,0.2,0.2,0.4,0.4,0.4h3.2c0.2,0,0.4-0.2,0.4-0.4l0.2-1.7
		c0.8-0.3,1.6-0.7,2.2-1.3l1.6,0.7c0.2,0.1,0.4,0,0.5-0.2l1.6-2.8c0.1-0.2,0.1-0.4-0.1-0.6l-1.4-1c0.1-0.4,0.1-0.9,0.1-1.3
		c0-0.4-0.1-0.9-0.1-1.3l1.4-1c0.2-0.1,0.2-0.4,0.1-0.6l-1.6-2.8c-0.1-0.2-0.3-0.3-0.5-0.2l-1.6,0.7c-0.6-0.6-1.4-1-2.2-1.3L17,0.4
		C17,0.2,16.8,0,16.6,0H13.4z M15,5.6c1.7,0,3,1.3,3,3c0,1.7-1.3,3-3,3s-3-1.3-3-3C12,6.9,13.4,5.6,15,5.6z"/>
</g>
</svg>
