<?xml version="1.0" encoding="utf-8"?>
<svg version="1.1" id="Layer_3" xmlns="http://www.w3.org/2000/svg" xmlns:xlink="http://www.w3.org/1999/xlink" x="0px" y="0px"
	 viewBox="0 0 30 30" style="enable-background:new 0 0 30 30;" xml:space="preserve">
<g>
	<path d="M28.9,2.4H16.3V0.1c0-0.2-0.1-0.3-0.3-0.3h-2c-0.2,0-0.3,0.1-0.3,0.3v2.3H1.1C0.5,2.4,0,2.9,0,3.5v18.4
		C0,22.5,0.5,23,1.1,23h12.6v1.1L7.9,28c-0.1,0.1-0.2,0.3-0.1,0.4L8.9,30v0c0.1,0.1,0.3,0.2,0.4,0.1l5.7-3.7l5.7,3.7
		c0.1,0.1,0.3,0,0.4-0.1v0l1.1-1.7c0.1-0.1,0-0.3-0.1-0.4l-5.8-3.8V23h12.6c0.6,0,1.1-0.5,1.1-1.1V3.5C30,2.9,29.5,2.4,28.9,2.4z
		 M27.5,20.5H2.5V4.9h24.9V20.5z"/>
	<g>
		<g>
			<path d="M20.5,12.5L13,7c-0.2-0.1-0.4-0.1-0.6,0.1c-0.1,0.1-0.1,0.2-0.1,0.2v11c0,0.3,0.4,0.5,0.6,0.3l7.6-5.5
				C20.7,13.1,20.8,12.8,20.5,12.5C20.6,12.6,20.6,12.6,20.5,12.5L20.5,12.5z M14,16V9.8l4.3,3.1L14,16L14,16z"/>
		</g>
	</g>
</g>
</svg>
