<?xml version="1.0" encoding="utf-8"?>
<svg version="1.1" id="Layer_3" xmlns="http://www.w3.org/2000/svg" xmlns:xlink="http://www.w3.org/1999/xlink" x="0px" y="0px"
	 viewBox="0 0 30 30" style="enable-background:new 0 0 30 30;" xml:space="preserve">
<path d="M3,0c1.5,0.1,2.8,0.6,3.7,1.7c1.2,1.5,1.8,3.2,2,5c0.1,0.5,0.1,1.1,0.1,1.6c0,4.7,0,9.4-0.1,14.1c0,1.1,0.6,1.7,1.7,1.7
	c3,0,6,0,8.9,0c1.3,0,1.8-0.5,1.8-1.9c0-2.2,0-4.4,0-6.5c0-1.3-0.5-1.8-1.8-1.9c-1.8,0-3.6-0.1-5.3-0.8c-1.3-0.5-2.4-1.1-3.3-2.2
	c-0.6-0.8-0.9-1.7-0.9-2.8c0.2,0,0.3,0,0.4,0c3.1,0,6.2-0.1,9.3,0c4.3,0.1,6.8,2.9,7.5,6.7c0.1,0.4,0,0.8,0,1.2c0,2.2,0,4.4,0,6.6
	c0,4.2-3.4,7.5-7.5,7.5c-2.9,0-5.7,0-8.6,0c-4.2,0-7.1-2.3-7.9-6.5C3,23.2,3,22.8,3,22.5C3,15.1,3,7.8,3,0.5C3,0.3,3,0.2,3,0z"/>
</svg>
