<?xml version="1.0" encoding="utf-8"?>
<svg version="1.1" id="Layer_3" xmlns="http://www.w3.org/2000/svg" xmlns:xlink="http://www.w3.org/1999/xlink" x="0px" y="0px"
	 viewBox="0 0 30 30" style="enable-background:new 0 0 30 30;" xml:space="preserve">
<g>
	<path d="M22.8,16.8c0-0.1-0.1-0.2-0.2-0.2H21c-0.1,0-0.2,0.1-0.2,0.2c0,3.7-3,6.6-6.6,6.6s-6.6-3-6.6-6.6c0-0.1-0.1-0.2-0.2-0.2
		H5.7c-0.1,0-0.2,0.1-0.2,0.2c0,4.4,3.3,8.1,7.6,8.6V28H9.3c-0.4,0-0.6,0.4-0.6,0.8v0.9c0,0.1,0.1,0.2,0.2,0.2h10.7
		c0.1,0,0.2-0.1,0.2-0.2v-0.9c0-0.5-0.3-0.8-0.6-0.8h-3.9v-2.7C19.4,24.9,22.8,21.2,22.8,16.8L22.8,16.8z M14.2,21.2
		c2.5,0,4.4-2,4.4-4.4V11c0-2.4-2-4.4-4.4-4.4s-4.4,2-4.4,4.4v5.9C9.7,19.2,11.7,21.2,14.2,21.2z M11.7,11c0-1.3,1.1-2.4,2.5-2.4
		s2.5,1.1,2.5,2.4v5.9c0,1.3-1.1,2.4-2.5,2.4s-2.5-1.1-2.5-2.4V11z"/>
	<path d="M19.7,8.5c0.5,0.1,0.9-0.1,1.1-0.6c0.4-1.1,0.1-2.4-0.7-3.3c-0.8-0.9-2-1.3-3.2-1c-0.5,0.1-0.8,0.6-0.7,1c0,0,0,0,0,0
		c0.1,0.5,0.6,0.8,1,0.7c0,0,0,0,0,0c0.6-0.1,1.2,0.1,1.6,0.5c0.4,0.4,0.5,1.1,0.3,1.6C19,7.9,19.2,8.4,19.7,8.5
		C19.7,8.5,19.7,8.5,19.7,8.5z"/>
	<path d="M22.7,2.3c-1.7-1.9-4.3-2.6-6.6-2.1c-0.5,0.1-0.9,0.6-0.8,1.2c0,0,0,0,0,0c0.1,0.5,0.6,0.9,1.2,0.8c0,0,0,0,0,0
		c1.7-0.4,3.5,0.2,4.7,1.5c1.2,1.4,1.6,3.2,1,4.8c-0.2,0.5,0.1,1.1,0.6,1.3c0.5,0.2,1.1-0.1,1.3-0.6v0C24.9,6.8,24.4,4.2,22.7,2.3
		L22.7,2.3z"/>
</g>
</svg>
