<?xml version="1.0" encoding="utf-8"?>
<svg version="1.1" id="Layer_3" xmlns="http://www.w3.org/2000/svg" xmlns:xlink="http://www.w3.org/1999/xlink" x="0px" y="0px"
	 viewBox="0 0 30 30" style="enable-background:new 0 0 30 30;" xml:space="preserve">
<g>
	<path d="M1.7,10.3h3.2l1.3,6.2l3.4-6.2h3.2l-1.7,9.5H8.5l0.9-5.3l-2.7,5.3H4.5l-0.9-5.3l-0.9,5.3H0L1.7,10.3z"/>
	<path d="M17.2,16.7h-1.3l-0.6,3.2h-2.7l1.7-9.5h4c2.4,0,3.3,1.3,3,3.2C21,15.2,19.6,16.7,17.2,16.7z M17.3,14.6
		c0.8,0,1.2-0.4,1.3-1c0.1-0.6-0.1-1.1-0.9-1.1h-1.1l-0.4,2.1H17.3z"/>
	<path d="M25.9,18.2h-4.4l0.4-2.2l5.2-5.9H30l-1,5.8h1l-0.4,2.3h-1l-0.3,1.6h-2.7L25.9,18.2z M26.5,15.9l0.5-2.8l-2.4,2.8H26.5z"/>
</g>
</svg>
