<?xml version="1.0" encoding="utf-8"?>
<svg version="1.1" id="Layer_3" xmlns="http://www.w3.org/2000/svg" xmlns:xlink="http://www.w3.org/1999/xlink" x="0px" y="0px"
	 viewBox="0 0 30 30" style="enable-background:new 0 0 30 30;" xml:space="preserve">
<g>
	<path d="M28.1,13.6c1,0,1.9-0.8,1.9-1.9V4.1c0-1-0.8-1.9-1.9-1.9H1.9C0.8,2.2,0,3,0,4.1v7.6c0,1,0.8,1.9,1.9,1.9h3.7l-4.7,3
		c-0.5,0.3-0.8,0.8-0.8,1.3c0,0.1,0,0.2,0,0.4v7.6c0,1,0.8,1.9,1.9,1.9h26.2c1,0,1.9-0.8,1.9-1.9v-7.6c0-1-0.8-1.9-1.9-1.9h-5.8
		l4.4-2.8H28.1z M20.1,17.1h8c0.7,0,1.2,0.5,1.2,1.2v7.6c0,0.7-0.5,1.2-1.2,1.2H1.9c-0.7,0-1.2-0.5-1.2-1.2v-7.6c0-0.1,0-0.2,0-0.2
		l0,0c0.1-0.3,0.2-0.7,0.5-0.8l6.7-4.3h-6c-0.7,0-1.2-0.5-1.2-1.2V4.1c0-0.7,0.5-1.2,1.2-1.2h26.2c0.7,0,1.2,0.5,1.2,1.2v7.6
		c0,0.7-0.5,1.2-1.2,1.2h-1.5L20.1,17.1z"/>
	<path d="M28.5,3.6H1.5v8.5h9.1l-8.9,5.7H1.5V18l-0.2,0.1l0.2,0.2v8h27.1v-8.5H17.4l8.9-5.7h2.2V3.6z M19.7,18.7v2.7h0.5v-2.7h3.3
		v2.7h0.5v-2.7h1.8v6.8H2.3v-6.8h1.8v2.7h0.5v-2.7H8v2.7h0.5v-2.7h3.4v2.7h0.5v-2.7h3.4v2.7h0.5v-2.7H19.7z M15.8,17.9H3.2l8.9-5.7
		h12.6L15.8,17.9z M27.7,11.3L27.7,11.3H11.9H6.8V9.6c0.1,0,0.2,0,0.3,0c0.9,0,1.7-0.8,1.7-1.7c0-0.9-0.8-1.7-1.7-1.7
		c-0.1,0-0.2,0-0.3,0V4.5h4.8v2.7h0.5V4.5h3.4v2.7H16V4.5h3.4v2.7H20V4.5h3.4v2.7h0.5V4.5h3.8V11.3z"/>
</g>
</svg>
